<?xml version="1.0" encoding="UTF-8"?>
<svg xmlns="http://www.w3.org/2000/svg" xmlns:xlink="http://www.w3.org/1999/xlink" width="16px" height="px" viewBox="0 0 16 16" version="1.1">
<g id="surface1">
<path style=" stroke:none;fill-rule:nonzero;fill:rgb(0%,0%,0%);fill-opacity:1;" d="M 1.921875 0.144531 C 0.890625 0.144531 0.0507812 0.984375 0.0507812 2.015625 C 0.0507812 3.046875 0.890625 3.886719 1.921875 3.886719 C 2.953125 3.886719 3.792969 3.046875 3.792969 2.015625 C 3.792969 0.984375 2.953125 0.144531 1.921875 0.144531 Z M 1.921875 0.144531 "/>
<path style=" stroke:none;fill-rule:nonzero;fill:rgb(0%,0%,0%);fill-opacity:1;" d="M 7.980469 0.144531 C 6.949219 0.144531 6.109375 0.984375 6.109375 2.015625 C 6.109375 3.046875 6.949219 3.886719 7.980469 3.886719 C 9.011719 3.886719 9.851562 3.046875 9.851562 2.015625 C 9.851562 0.984375 9.011719 0.144531 7.980469 0.144531 Z M 7.980469 0.144531 "/>
<path style=" stroke:none;fill-rule:nonzero;fill:rgb(0%,0%,0%);fill-opacity:1;" d="M 14.136719 3.886719 C 15.167969 3.886719 16.007812 3.046875 16.007812 2.015625 C 16.007812 0.984375 15.171875 0.144531 14.136719 0.144531 C 13.105469 0.144531 12.265625 0.984375 12.265625 2.015625 C 12.265625 3.046875 13.105469 3.886719 14.136719 3.886719 Z M 14.136719 3.886719 "/>
<path style=" stroke:none;fill-rule:nonzero;fill:rgb(0%,0%,0%);fill-opacity:1;" d="M 1.871094 9.886719 C 2.90625 9.886719 3.746094 9.046875 3.746094 8.015625 C 3.746094 6.980469 2.90625 6.140625 1.871094 6.140625 C 0.839844 6.140625 0 6.980469 0 8.015625 C 0 9.046875 0.839844 9.886719 1.871094 9.886719 Z M 1.871094 9.886719 "/>
<path style=" stroke:none;fill-rule:nonzero;fill:rgb(0%,0%,0%);fill-opacity:1;" d="M 7.929688 9.886719 C 8.964844 9.886719 9.804688 9.046875 9.804688 8.015625 C 9.804688 6.980469 8.964844 6.140625 7.929688 6.140625 C 6.898438 6.140625 6.058594 6.980469 6.058594 8.015625 C 6.058594 9.046875 6.898438 9.886719 7.929688 9.886719 Z M 7.929688 9.886719 "/>
<path style=" stroke:none;fill-rule:nonzero;fill:rgb(0%,0%,0%);fill-opacity:1;" d="M 14.089844 9.886719 C 15.121094 9.886719 15.960938 9.046875 15.960938 8.015625 C 15.960938 6.980469 15.121094 6.140625 14.089844 6.140625 C 13.054688 6.140625 12.214844 6.980469 12.214844 8.015625 C 12.214844 9.046875 13.054688 9.886719 14.089844 9.886719 Z M 14.089844 9.886719 "/>
<path style=" stroke:none;fill-rule:nonzero;fill:rgb(0%,0%,0%);fill-opacity:1;" d="M 1.914062 12.121094 C 0.882812 12.121094 0.0429688 12.960938 0.0429688 13.996094 C 0.0429688 15.027344 0.882812 15.867188 1.914062 15.867188 C 2.949219 15.867188 3.789062 15.027344 3.789062 13.996094 C 3.789062 12.960938 2.949219 12.121094 1.914062 12.121094 Z M 1.914062 12.121094 "/>
<path style=" stroke:none;fill-rule:nonzero;fill:rgb(0%,0%,0%);fill-opacity:1;" d="M 7.976562 12.121094 C 6.941406 12.121094 6.101562 12.960938 6.101562 13.996094 C 6.101562 15.027344 6.941406 15.867188 7.976562 15.867188 C 9.007812 15.867188 9.847656 15.027344 9.847656 13.996094 C 9.847656 12.960938 9.007812 12.121094 7.976562 12.121094 Z M 7.976562 12.121094 "/>
<path style=" stroke:none;fill-rule:nonzero;fill:rgb(0%,0%,0%);fill-opacity:1;" d="M 14.132812 12.121094 C 13.097656 12.121094 12.257812 12.960938 12.257812 13.996094 C 12.257812 15.027344 13.097656 15.867188 14.132812 15.867188 C 15.164062 15.867188 16.003906 15.027344 16.003906 13.996094 C 16.003906 12.960938 15.164062 12.121094 14.132812 12.121094 Z M 14.132812 12.121094 "/>
</g>
</svg>
