<?xml version="1.0" encoding="UTF-8"?>
<svg xmlns="http://www.w3.org/2000/svg" xmlns:xlink="http://www.w3.org/1999/xlink" width="16px" height="px" viewBox="0 0 16 16" version="1.1">
<g id="surface1">
<path style=" stroke:none;fill-rule:nonzero;fill:rgb(0%,0%,0%);fill-opacity:1;" d="M 3.113281 3.464844 L 2.890625 2.132812 L 2.09375 2.132812 C 1.976562 1.675781 1.5625 1.332031 1.066406 1.332031 C 0.476562 1.332031 0 1.8125 0 2.398438 C 0 2.988281 0.476562 3.464844 1.066406 3.464844 C 1.5625 3.464844 1.976562 3.125 2.09375 2.667969 L 2.441406 2.667969 L 2.574219 3.464844 L 2.5625 3.464844 L 3.941406 10.402344 C 3.285156 10.453125 2.738281 10.960938 2.671875 11.597656 C 2.636719 11.972656 2.757812 12.347656 3.011719 12.625 C 3.265625 12.90625 3.625 13.066406 4 13.066406 L 4.535156 13.066406 C 4.535156 13.949219 5.25 14.667969 6.132812 14.667969 C 7.015625 14.667969 7.734375 13.949219 7.734375 13.066406 L 10.667969 13.066406 C 10.667969 13.949219 11.382812 14.667969 12.265625 14.667969 C 13.148438 14.667969 13.867188 13.949219 13.867188 13.066406 L 14.933594 13.066406 C 15.082031 13.066406 15.199219 12.949219 15.199219 12.800781 C 15.199219 12.652344 15.082031 12.535156 14.933594 12.535156 L 13.773438 12.535156 C 13.554688 11.914062 12.960938 11.464844 12.265625 11.464844 C 11.570312 11.464844 10.980469 11.914062 10.761719 12.535156 L 7.640625 12.535156 C 7.417969 11.914062 6.828125 11.464844 6.132812 11.464844 C 5.4375 11.464844 4.847656 11.914062 4.625 12.535156 L 4 12.535156 C 3.777344 12.535156 3.558594 12.4375 3.40625 12.269531 C 3.253906 12.097656 3.179688 11.878906 3.203125 11.652344 C 3.246094 11.25 3.617188 10.933594 4.050781 10.933594 L 4.261719 10.933594 C 4.265625 10.933594 4.269531 10.933594 4.269531 10.933594 L 14.667969 10.933594 C 15.402344 10.933594 16 10.335938 16 9.601562 L 16 3.464844 Z M 1.066406 2.933594 C 0.773438 2.933594 0.535156 2.695312 0.535156 2.398438 C 0.535156 2.105469 0.773438 1.867188 1.066406 1.867188 C 1.359375 1.867188 1.601562 2.105469 1.601562 2.398438 C 1.601562 2.695312 1.359375 2.933594 1.066406 2.933594 Z M 12.265625 12 C 12.855469 12 13.332031 12.476562 13.332031 13.066406 C 13.332031 13.65625 12.855469 14.132812 12.265625 14.132812 C 11.679688 14.132812 11.199219 13.65625 11.199219 13.066406 C 11.199219 12.476562 11.679688 12 12.265625 12 Z M 6.132812 12 C 6.722656 12 7.199219 12.476562 7.199219 13.066406 C 7.199219 13.65625 6.722656 14.132812 6.132812 14.132812 C 5.546875 14.132812 5.066406 13.65625 5.066406 13.066406 C 5.066406 12.476562 5.546875 12 6.132812 12 Z M 15.464844 9.601562 C 15.464844 10.042969 15.109375 10.398438 14.671875 10.398438 L 4.484375 10.398438 L 3.214844 4 L 15.464844 4 Z M 15.464844 9.601562 "/>
</g>
</svg>
