<?xml version="1.0" encoding="UTF-8"?>
<svg xmlns="http://www.w3.org/2000/svg" xmlns:xlink="http://www.w3.org/1999/xlink" width="16px" height="px" viewBox="0 0 16 16" version="1.1">
<g id="surface1">
<path style=" stroke:none;fill-rule:nonzero;fill:rgb(0%,0%,0%);fill-opacity:1;" d="M 7.257812 14.800781 C 7.457031 15 7.726562 15.113281 8.007812 15.113281 C 8.285156 15.113281 8.558594 15 8.753906 14.800781 L 14.617188 8.941406 C 15.507812 8.050781 15.996094 6.863281 16 5.609375 C 16 4.347656 15.511719 3.164062 14.621094 2.273438 C 13.730469 1.382812 12.546875 0.894531 11.289062 0.894531 C 10.050781 0.894531 8.886719 1.367188 8.003906 2.226562 C 7.117188 1.363281 5.949219 0.886719 4.707031 0.886719 C 3.453125 0.886719 2.269531 1.375 1.378906 2.265625 C 0.488281 3.15625 0 4.339844 0 5.597656 C 0 6.855469 0.492188 8.039062 1.382812 8.929688 Z M 1.949219 2.832031 C 2.683594 2.09375 3.667969 1.6875 4.710938 1.6875 C 5.753906 1.6875 6.742188 2.09375 7.480469 2.835938 L 7.722656 3.078125 C 7.796875 3.152344 7.898438 3.195312 8.007812 3.195312 C 8.109375 3.195312 8.214844 3.152344 8.289062 3.078125 L 8.523438 2.839844 C 9.265625 2.101562 10.246094 1.691406 11.296875 1.691406 C 12.339844 1.691406 13.320312 2.101562 14.058594 2.839844 C 14.800781 3.578125 15.203125 4.5625 15.203125 5.605469 C 15.203125 6.648438 14.796875 7.632812 14.054688 8.371094 L 8.1875 14.238281 C 8.09375 14.332031 7.921875 14.332031 7.824219 14.238281 L 1.949219 8.367188 C 1.210938 7.625 0.800781 6.644531 0.800781 5.597656 C 0.800781 4.554688 1.210938 3.574219 1.949219 2.832031 Z M 1.949219 2.832031 "/>
</g>
</svg>
